<?xml version="1.0" encoding="UTF-8"?>
<svg width="283px" height="283px" viewBox="0 0 283 283" version="1.1" xmlns="http://www.w3.org/2000/svg" xmlns:xlink="http://www.w3.org/1999/xlink">
    <!-- Generator: Sketch 50.2 (55047) - http://www.bohemiancoding.com/sketch -->
    <title>app copy</title>
    <desc>Created with Sketch.</desc>
    <defs></defs>
    <g id="Page-1" stroke="none" stroke-width="1" fill="none" fill-rule="evenodd">
        <g id="home" transform="translate(-873.000000, -3385.000000)">
            <g id="what-we-do" transform="translate(200.000000, 2619.000000)">
                <g id="group" transform="translate(0.000000, 418.000000)">
                    <g id="Group-8" transform="translate(0.000000, 209.000000)">
                        <g id="Group-7" transform="translate(572.000000, 5.000000)">
                            <g id="app-copy" transform="translate(101.000000, 134.000000)">
                                <path d="M75.792,167.583 C61.244,167.583 49.449,155.789 49.449,141.24 C49.449,126.692 61.244,114.898 75.792,114.898 C90.34,114.898 102.135,126.692 102.135,141.24 C102.135,155.789 90.34,167.583 75.792,167.583 Z M75.792,97.534 C51.654,97.534 32.085,117.101 32.085,141.239 C32.085,165.378 51.654,184.946 75.792,184.946 C99.931,184.946 119.499,165.378 119.499,141.239 C119.499,117.101 99.931,97.534 75.792,97.534 Z" id="Fill-6" fill="#FFFFFE"></path>
                                <path d="M75.814,114.898 C90.363,114.898 102.157,126.691 102.157,141.24 C102.157,155.789 90.363,167.582 75.814,167.582 C61.266,167.582 49.472,155.789 49.472,141.24 C49.472,126.691 61.266,114.898 75.814,114.898" id="Fill-7" fill="#D7D7D7"></path>
                                <path d="M75.792,189.858 C48.941,189.858 27.174,168.091 27.174,141.24 C27.174,114.389 48.941,92.622 75.792,92.622 C102.643,92.622 124.41,114.389 124.41,141.24 C124.41,168.091 102.643,189.858 75.792,189.858 Z M147.409,127.884 L138.459,127.884 C136.808,120.098 133.724,112.853 129.527,106.393 L135.876,100.043 C137.132,98.787 137.132,96.751 135.876,95.495 L121.536,81.155 C120.281,79.899 118.244,79.899 116.988,81.155 L110.64,87.506 C104.18,83.308 96.933,80.225 89.147,78.573 L89.147,69.623 C89.147,67.847 87.707,66.408 85.932,66.408 L65.652,66.408 C63.876,66.408 62.436,67.847 62.436,69.623 L62.436,78.573 C54.65,80.225 47.406,83.308 40.946,87.506 L34.595,81.155 C33.339,79.899 31.303,79.899 30.047,81.155 L15.708,95.495 C14.452,96.751 14.452,98.787 15.708,100.043 L22.057,106.393 C17.859,112.853 14.777,120.098 13.125,127.884 L4.175,127.884 C2.4,127.884 0.96,129.324 0.96,131.1 L0.96,151.379 C0.96,153.155 2.4,154.595 4.175,154.595 L13.125,154.595 C14.777,162.381 17.859,169.627 22.057,176.087 L15.708,182.437 C14.452,183.693 14.452,185.729 15.708,186.985 L30.047,201.324 C31.303,202.58 33.339,202.58 34.595,201.324 L40.946,194.974 C47.406,199.172 54.65,202.255 62.436,203.907 L62.436,212.856 C62.436,214.633 63.876,216.072 65.652,216.072 L85.932,216.072 C87.707,216.072 89.147,214.633 89.147,212.856 L89.147,203.907 C96.933,202.255 104.18,199.172 110.64,194.974 L116.988,201.324 C118.244,202.58 120.281,202.58 121.536,201.324 L135.876,186.985 C137.132,185.729 137.132,183.693 135.876,182.437 L129.527,176.087 C133.724,169.627 136.807,162.381 138.459,154.595 L147.409,154.595 C149.185,154.595 150.624,153.155 150.624,151.379 L150.624,131.1 C150.624,129.324 149.185,127.884 147.409,127.884 Z" id="Fill-8" fill="#999999"></path>
                                <path d="M75.792,184.946 C51.654,184.946 32.085,165.378 32.085,141.239 C32.085,117.101 51.654,97.534 75.792,97.534 C99.931,97.534 119.499,117.101 119.499,141.239 C119.499,165.378 99.931,184.946 75.792,184.946 Z M75.792,92.622 C48.941,92.622 27.174,114.389 27.174,141.24 C27.174,168.091 48.941,189.858 75.792,189.858 C102.643,189.858 124.41,168.091 124.41,141.24 C124.41,114.389 102.643,92.622 75.792,92.622 Z" id="Fill-9" fill="#999999"></path>
                                <path d="M129.65,10.321 L266.542,10.321 C275.389,10.321 282.56,17.493 282.56,26.339 L282.56,266.022 C282.56,274.868 275.389,282.04 266.542,282.04 L129.65,282.04 C120.803,282.04 113.631,274.868 113.631,266.022 L113.631,26.339 C113.631,17.493 120.803,10.321 129.65,10.321" id="Fill-10" fill="#C6C6C5"></path>
                                <path d="M129.65,0.44 L266.542,0.44 C275.389,0.44 282.56,7.612 282.56,16.458 L282.56,256.141 C282.56,264.987 275.389,272.159 266.542,272.159 L129.65,272.159 C120.803,272.159 113.631,264.987 113.631,256.141 L113.631,16.458 C113.631,7.612 120.803,0.44 129.65,0.44" id="Fill-11" fill="#D7D7D7"></path>
                                <path d="M133.394,227.063 L133.394,31.681 C133.394,30.225 134.645,29.044 136.188,29.044 L260.003,29.044 C261.546,29.044 262.797,30.225 262.797,31.681 L262.797,227.063 C262.797,228.52 261.546,229.701 260.003,229.701 L136.188,229.701 C134.645,229.701 133.394,228.52 133.394,227.063" id="Fill-12" fill="#FFFFFF"></path>
                                <path d="M198.08,238.484 C205.48,238.484 211.479,244.483 211.479,251.883 C211.479,259.283 205.48,265.282 198.08,265.282 C190.68,265.282 184.681,259.283 184.681,251.883 C184.681,244.483 190.68,238.484 198.08,238.484" id="Fill-13" fill="#C6C6C5"></path>
                                <path d="M172.803,11.201 L223.389,11.201 C225.857,11.201 227.859,13.202 227.859,15.671 C227.859,18.14 225.857,20.142 223.389,20.142 L172.803,20.142 C170.334,20.142 168.332,18.14 168.332,15.671 C168.332,13.202 170.334,11.201 172.803,11.201" id="Fill-14" fill="#C6C6C5"></path>
                                <polyline id="Fill-16" fill="#999999" points="171.15 139.545 143.455 111.849 143.455 121.882 84.689 121.882 84.689 157.208 143.455 157.208 143.455 167.241 171.15 139.545"></polyline>
                                <polygon id="Fill-17" fill="#999999" points="147.904 221.726 174.221 221.726 174.221 195.41 147.904 195.41"></polygon>
                                <polygon id="Fill-18" fill="#D7D7D7" points="184.922 221.726 211.238 221.726 211.238 195.41 184.922 195.41"></polygon>
                                <polygon id="Fill-19" fill="#999999" points="221.99 221.726 248.307 221.726 248.307 195.41 221.99 195.41"></polygon>
                                <polygon id="Fill-20" fill="#999999" points="184.922 180.741 211.238 180.741 211.238 154.424 184.922 154.424"></polygon>
                                <polygon id="Fill-21" fill="#D7D7D7" points="221.99 180.741 248.307 180.741 248.307 154.424 221.99 154.424"></polygon>
                                <polygon id="Fill-22" fill="#D7D7D7" points="184.922 139.776 211.238 139.776 211.238 113.459 184.922 113.459"></polygon>
                                <polygon id="Fill-23" fill="#999999" points="221.99 139.776 248.307 139.776 248.307 113.459 221.99 113.459"></polygon>
                            </g>
                        </g>
                    </g>
                </g>
            </g>
        </g>
    </g>
</svg>