<?xml version="1.0" encoding="UTF-8"?>
<svg width="95px" height="96px" viewBox="0 0 95 96" version="1.1" xmlns="http://www.w3.org/2000/svg" xmlns:xlink="http://www.w3.org/1999/xlink">
    <!-- Generator: Sketch 50.2 (55047) - http://www.bohemiancoding.com/sketch -->
    <title>Combined Shape Copy</title>
    <desc>Created with Sketch.</desc>
    <defs>
        <linearGradient x1="50%" y1="0%" x2="50%" y2="100%" id="linearGradient-1">
            <stop stop-color="#F298E7" offset="0%"></stop>
            <stop stop-color="#7A70F7" offset="100%"></stop>
        </linearGradient>
    </defs>
    <g id="Page-1" stroke="none" stroke-width="1" fill="none" fill-rule="evenodd">
        <g id="home" transform="translate(-316.000000, -2017.000000)" fill="url(#linearGradient-1)">
            <g id="entroy-&amp;-micro" transform="translate(-296.000000, 1857.000000)">
                <g id="Group-2-Copy-2" transform="translate(612.000000, 160.903821)">
                    <path d="M47.5,94.5915679 C21.2664744,94.5915679 0,73.4165241 0,47.2957839 C0,21.1750437 21.2664744,0 47.5,0 C73.7335256,0 95,21.1750437 95,47.2957839 C95,73.4165241 73.7335256,94.5915679 47.5,94.5915679 Z M47.5967413,76.2478119 C63.6021175,76.2478119 76.5770385,63.3286738 76.5770385,47.3921094 C76.5770385,31.4555449 63.6021175,18.5364068 47.5967413,18.5364068 C31.5913652,18.5364068 18.6164442,31.4555449 18.6164442,47.3921094 C18.6164442,63.3286738 31.5913652,76.2478119 47.5967413,76.2478119 Z" id="Combined-Shape-Copy"></path>
                </g>
            </g>
        </g>
    </g>
</svg>