<?xml version="1.0" encoding="UTF-8"?>
<svg width="60px" height="60px" viewBox="0 0 60 60" version="1.1" xmlns="http://www.w3.org/2000/svg" xmlns:xlink="http://www.w3.org/1999/xlink">
    <!-- Generator: Sketch 50.2 (55047) - http://www.bohemiancoding.com/sketch -->
    <title>closed-envelope-circle</title>
    <desc>Created with Sketch.</desc>
    <defs>
        <polygon id="path-1" points="0.00734693878 0.0488798371 59.9512653 0.0488798371 59.9512653 59.8780448 0.00734693878 59.8780448"></polygon>
    </defs>
    <g id="Page-1" stroke="none" stroke-width="1" fill="none" fill-rule="evenodd">
        <g id="home" transform="translate(-432.000000, -9379.000000)">
            <g id="footer" transform="translate(-1171.000000, 7768.000000)">
                <g transform="translate(1369.000000, 1151.000000)" id="Group-12">
                    <g transform="translate(2.000000, 460.000000)">
                        <g id="closed-envelope-circle" transform="translate(232.000000, 0.000000)">
                            <mask id="mask-2" fill="white">
                                <use xlink:href="#path-1"></use>
                            </mask>
                            <g id="Clip-2"></g>
                            <path d="M29.9756327,59.8780448 C27.2175918,59.8780448 24.5600816,59.5190224 22.0021224,58.8010998 C19.4440408,58.0826884 17.0562857,57.0760081 14.8378776,55.7794705 C12.6198367,54.483055 10.6013878,52.927943 8.78289796,51.1130346 C6.96428571,49.2981263 5.4055102,47.2837882 4.10681633,45.070387 C2.8077551,42.8564969 1.79853061,40.4731161 1.07902041,37.9207332 C0.359755102,35.3678615 0,32.7152749 0,29.9634623 C0,27.2110387 0.359755102,24.5589409 1.07902041,22.0061914 C1.79853061,19.4533198 2.8077551,17.0704277 4.10681633,14.8565377 C5.4055102,12.6430143 6.96428571,10.6286762 8.78289796,8.81389002 C10.6013878,6.99898167 12.6198367,5.44338086 14.8378776,4.14733198 C17.0562857,2.8509165 19.4440408,1.84362525 22.0021224,1.12570265 C24.5600816,0.407780041 27.2175918,0.0488798371 29.9756327,0.0488798371 C34.092,0.0488798371 37.9787755,0.836456212 41.6359592,2.41221996 C45.2932653,3.98737271 48.4702041,6.12158859 51.1683673,8.81389002 C53.8660408,11.5060692 56.0041224,14.6770265 57.583102,18.3267617 C59.1614694,21.9760081 59.9512653,25.8549898 59.9512653,29.9634623 C59.9512653,32.7152749 59.5915102,35.3678615 58.8721224,37.9207332 C58.1522449,40.4731161 57.1435102,42.8564969 55.8443265,45.070387 C54.5452653,47.2837882 52.9869796,49.2981263 51.1683673,51.1130346 C49.3497551,52.927943 47.3313061,54.4835438 45.1133878,55.7794705 C42.8949796,57.0760081 40.5067347,58.0826884 37.9486531,58.8010998 C35.3910612,59.5190224 32.7330612,59.8780448 29.9756327,59.8780448 Z M44.4236327,17.6384114 L16.006898,17.6384114 C15.727102,17.6384114 15.4873469,17.7282281 15.2875102,17.9077393 C15.087551,18.0871283 14.9875102,18.3367821 14.9875102,18.655723 L14.9875102,21.8266802 C14.9875102,21.9861507 15.0478776,22.0658248 15.1673878,22.0658248 L30.0951429,30.5615071 L30.2157551,30.6216293 C30.295102,30.6216293 30.3553469,30.6015886 30.3955102,30.5615071 L44.8436327,22.0658248 C44.9234694,22.0262322 44.9832245,22.0061914 45.0233878,22.0061914 C45.0631837,22.0061914 45.1234286,21.9861507 45.2032653,21.9464358 C45.3630612,21.9464358 45.442898,21.8662729 45.442898,21.7068024 L45.442898,18.655723 C45.442898,18.3367821 45.3429796,18.0871283 45.1430204,17.9077393 C44.9430612,17.7282281 44.7034286,17.6384114 44.4236327,17.6384114 Z M24.0401633,30.3821181 C24.0803265,30.3424033 24.1004082,30.2822811 24.1004082,30.2026069 C24.1004082,30.0827291 24.0602449,30.0230957 23.9804082,30.0230957 L15.4075102,25.1170265 C15.2875102,25.0773116 15.1874694,25.0773116 15.1076327,25.1170265 C15.0277959,25.1170265 14.9875102,25.1771487 14.9875102,25.2964155 L14.9875102,38.1598778 C14.9875102,38.2796334 15.0478776,38.3594297 15.1673878,38.3990224 L15.2875102,38.3990224 C15.3673469,38.3990224 15.4075102,38.3789817 15.4075102,38.339389 L24.0401633,30.3821181 Z M34.4718367,31.3395519 C34.4320408,31.2193075 34.3316327,31.1997556 34.1718367,31.2794297 L30.8744082,33.194053 C30.4749796,33.4331976 30.0554694,33.4331976 29.6153878,33.194053 L26.7378367,31.5788187 C26.6178367,31.4990224 26.5182857,31.4990224 26.4379592,31.5788187 L15.4672653,41.7499796 C15.427102,41.7895723 15.4070204,41.8692464 15.4070204,41.9891242 C15.4070204,42.0287169 15.4471837,42.0888391 15.5271429,42.1686354 C15.7667755,42.2483096 15.9269388,42.288391 16.006898,42.288391 L44.1237551,42.288391 C44.2035918,42.288391 44.2839184,42.2483096 44.3633878,42.1686354 C44.3633878,42.0086762 44.3437959,41.9094501 44.3035102,41.8692464 L34.4718367,31.3395519 Z M45.2630204,24.8778819 L45.0233878,24.8778819 L36.87,29.7238289 C36.7901633,29.7238289 36.75,29.7839511 36.75,29.9033401 C36.7103265,29.9434216 36.7304082,30.003055 36.8097551,30.0827291 L44.9631429,38.8778004 C45.043102,38.9574745 45.1033469,38.997556 45.1430204,38.997556 L45.2630204,38.997556 C45.3831429,38.8778004 45.442898,38.7981263 45.442898,38.7584114 L45.442898,25.1175153 C45.442898,25.0372301 45.3831429,24.957556 45.2630204,24.8778819 Z" id="Fill-1" fill="#FFFFFF" mask="url(#mask-2)"></path>
                        </g>
                    </g>
                </g>
            </g>
        </g>
    </g>
</svg>