<?xml version="1.0" encoding="UTF-8"?>
<svg width="200px" height="31px" viewBox="0 0 200 31" version="1.1" xmlns="http://www.w3.org/2000/svg" xmlns:xlink="http://www.w3.org/1999/xlink">
    <!-- Generator: Sketch 50.2 (55047) - http://www.bohemiancoding.com/sketch -->
    <title>entropy_logo</title>
    <desc>Created with Sketch.</desc>
    <defs></defs>
    <g id="Page-1" stroke="none" stroke-width="1" fill="none" fill-rule="evenodd">
        <g id="home" transform="translate(-200.000000, -43.000000)" fill-rule="nonzero">
            <g id="header" transform="translate(1.000000, -1.000000)">
                <g id="entropy_logo" transform="translate(199.000000, 44.000000)">
                    <rect id="Rectangle-path" fill="#000000" x="0" y="0" width="22.801935" height="5.75654025"></rect>
                    <rect id="Rectangle-path" fill="#000000" x="0" y="24.9616873" width="22.801935" height="5.75654025"></rect>
                    <rect id="Rectangle-path" fill="#000000" x="0" y="12.2501935" width="17.5266641" height="5.75750774"></rect>
                    <polygon id="Shape" fill="#000000" points="50.1107198 19.2967879 35.8796053 0 29.1557663 0 29.1557663 30.7182276 35.6955882 30.7182276 35.6955882 10.6845975 50.3409443 30.7182276 56.6501161 30.7182276 56.6501161 0 50.1107198 0"></polygon>
                    <polygon id="Shape" fill="#000000" points="63.1486068 5.75673375 72.129257 5.75673375 72.129257 30.7182276 78.7148607 30.7182276 78.7148607 5.75673375 87.6492647 5.75673375 87.6492647 0 63.1486068 0"></polygon>
                    <polygon id="Shape" fill="#000000" points="192.538932 0 184.986223 12.3427632 177.341099 0 169.880418 0 181.716525 18.1452786 181.716525 30.7182276 188.255921 30.7182276 188.255921 18.1452786 200 0"></polygon>
                    <path d="M117.857314,28.8047214 C117.720085,28.6751935 117.58185,28.5474845 117.447214,28.4125 C114.103793,25.0620743 112.432469,20.9065789 112.432469,15.9463622 C112.432469,11.229257 113.937616,7.24709752 116.942918,3.99729102 C115.20476,1.53262384 112.256502,0 108.394118,0 L94.0251161,0 L94.0251161,30.7182663 L100.564938,30.7182663 L100.564938,19.8034056 L105.354605,19.8034056 L111.387732,30.7182276 L118.894659,30.7182663 L118.564783,30.1596362 C118.303328,29.7168731 118.072949,29.2631192 117.857314,28.8047214 Z M107.427051,14.0467105 L100.564977,14.0467105 L100.564977,5.75673375 L107.427051,5.75673375 C110.052206,5.75673375 112.032663,7.32244582 112.032663,9.90193498 C112.032624,12.4805728 110.052206,14.0467105 107.427051,14.0467105 Z" id="Shape" fill="#000000"></path>
                    <path d="M156.75089,0 L142.381966,0 L142.381966,3.35684985 C142.420666,3.39493034 142.46072,3.43022446 142.499265,3.46873065 C145.841873,6.81176471 147.513584,10.9709752 147.513584,15.9463235 C147.513584,20.9220975 145.841873,25.081308 142.499265,28.4243421 C142.460681,28.4628483 142.420666,28.4981424 142.381966,28.5362229 L142.381966,30.7181889 L148.921788,30.7181889 L148.921788,19.8034056 L148.921788,14.0467105 L148.921788,11.1851393 L148.921788,5.75673375 L155.875851,5.75673375 C158.454876,5.75673375 160.389474,7.32244582 160.389474,9.90193498 C160.389474,12.4347523 158.454876,14.0467105 155.875851,14.0467105 L151.218692,14.0467105 L151.218692,19.8034056 L156.75089,19.8034056 C163.382663,19.8034056 167.067105,15.2440015 167.067105,9.90193498 C167.067105,4.51323529 163.428909,0 156.75089,0 Z" id="Shape" fill="#000000"></path>
                    <path d="M128.120356,1.37194272 L128.091718,1.37194272 C127.30863,1.37194272 126.673762,2.00677245 126.673762,2.78989938 L126.673762,24.909404 C126.673762,25.692531 127.308591,26.3273607 128.091718,26.3273607 L128.120356,26.3273607 C128.903444,26.3273607 129.538313,25.692531 129.538313,24.909404 L129.538313,2.78989938 C129.538313,2.00677245 128.903483,1.37194272 128.120356,1.37194272 Z" id="Shape" fill="#D02F4B"></path>
                    <path d="M133.419737,5.06323529 L133.391099,5.06323529 C132.607972,5.06323529 131.973142,5.69806502 131.973142,6.48119195 L131.973142,28.5069659 C131.973142,29.2900929 132.607972,29.9249226 133.391099,29.9249226 L133.419737,29.9249226 C134.202825,29.9249226 134.837693,29.2900929 134.837693,28.5069659 L134.837693,6.48119195 C134.837693,5.69806502 134.202825,5.06323529 133.419737,5.06323529 Z" id="Shape" fill="#1088BC"></path>
                    <path d="M137.78274,10.1465944 L137.760759,10.1465944 C137.160023,10.1465944 136.673026,10.6335913 136.673026,11.2343266 L136.673026,23.053483 C136.673026,23.6542183 137.160023,24.1412152 137.760759,24.1412152 L137.78274,24.1412152 C138.383475,24.1412152 138.870433,23.6542183 138.870433,23.053483 L138.870433,11.2343266 C138.870433,10.6335913 138.383475,10.1465944 137.78274,10.1465944 Z" id="Shape" fill="#D7B168"></path>
                    <path d="M123.408553,9.81451238 L123.379915,9.81451238 C122.596981,9.81451238 121.962268,10.449226 121.962268,11.2321594 L121.962268,22.0519737 C121.962268,22.8349071 122.596981,23.4696207 123.379915,23.4696207 L123.408553,23.4696207 C124.191486,23.4696207 124.8262,22.8349071 124.8262,22.0519737 L124.8262,11.2321981 C124.826238,10.449226 124.191525,9.81451238 123.408553,9.81451238 Z" id="Shape" fill="#D6995D"></path>
                    <path d="M140.760372,14.3220201 L140.749923,14.3220201 C140.464203,14.3220201 140.232585,14.5536378 140.232585,14.8393576 L140.232585,19.4519737 C140.232585,19.7376935 140.464203,19.9693111 140.749923,19.9693111 L140.760372,19.9693111 C141.046091,19.9693111 141.277709,19.7376935 141.277709,19.4519737 L141.277709,14.8393576 C141.27767,14.5536378 141.046053,14.3220201 140.760372,14.3220201 Z" id="Shape" fill="#D55F4D"></path>
                    <path d="M120.240286,14.3220201 L120.229837,14.3220201 C119.944118,14.3220201 119.7125,14.5536378 119.7125,14.8393576 L119.7125,19.4519737 C119.7125,19.7376935 119.944118,19.9693111 120.229837,19.9693111 L120.240286,19.9693111 C120.526006,19.9693111 120.757624,19.7376935 120.757624,19.4519737 L120.757624,14.8393576 C120.757624,14.5536378 120.526006,14.3220201 120.240286,14.3220201 Z" id="Shape" fill="#DAAF41"></path>
                </g>
            </g>
        </g>
    </g>
</svg>