<?xml version="1.0" encoding="UTF-8"?>
<svg width="50px" height="72px" viewBox="0 0 50 72" version="1.1" xmlns="http://www.w3.org/2000/svg" xmlns:xlink="http://www.w3.org/1999/xlink">
    <!-- Generator: Sketch 50.2 (55047) - http://www.bohemiancoding.com/sketch -->
    <title>Fill 1</title>
    <desc>Created with Sketch.</desc>
    <defs></defs>
    <g id="Page-1" stroke="none" stroke-width="1" fill="none" fill-rule="evenodd">
        <g id="home" transform="translate(-199.000000, -8935.000000)" fill="#FFFFFF">
            <g id="footer" transform="translate(-1171.000000, 7768.000000)">
                <g id="facebook-placeholder-for-locate-places-on-maps" transform="translate(1370.000000, 1167.000000)">
                    <path d="M48.43,17.923 C48.172,16.962 47.652,15.938 47.266,15.04 C42.66,3.97 32.594,0.001 24.465,0.001 C13.586,0.001 1.602,7.298 0,22.337 L0,25.407 C0,25.536 0.043,26.688 0.105,27.266 C1.004,34.43 6.66,42.048 10.883,49.216 C15.426,56.895 20.141,64.45 24.812,72.001 C27.695,67.071 30.566,62.079 33.379,57.278 C34.148,55.872 35.039,54.466 35.805,53.122 C36.316,52.223 37.297,51.329 37.742,50.497 C42.285,42.177 49.602,33.794 49.602,25.536 L49.602,22.145 C49.602,21.251 48.492,18.114 48.43,17.923 Z M24.664,33.345 C21.465,33.345 17.965,31.747 16.238,27.329 C15.98,26.626 16,25.216 16,25.087 L16,23.102 C16,17.473 20.781,14.911 24.941,14.911 C30.059,14.911 34.02,19.009 34.02,24.13 C34.02,29.251 29.785,33.345 24.664,33.345 Z" id="Fill-1"></path>
                </g>
            </g>
        </g>
    </g>
</svg>