<?xml version="1.0" encoding="UTF-8"?>
<svg width="283px" height="283px" viewBox="0 0 283 283" version="1.1" xmlns="http://www.w3.org/2000/svg" xmlns:xlink="http://www.w3.org/1999/xlink">
    <!-- Generator: Sketch 50.2 (55047) - http://www.bohemiancoding.com/sketch -->
    <title>Group 4</title>
    <desc>Created with Sketch.</desc>
    <defs></defs>
    <g id="Page-1" stroke="none" stroke-width="1" fill="none" fill-rule="evenodd">
        <g id="home" transform="translate(-259.000000, -3441.000000)">
            <g id="CONTEMPORARY" transform="translate(155.000000, 3336.000000)">
                <g id="Group-4" transform="translate(104.000000, 105.000000)">
                    <path d="M269.918,0.44 L13.602,0.44 C6.62,0.44 0.96,6.1 0.96,13.082 L0.96,269.397 C0.96,276.38 6.62,282.04 13.602,282.04 L269.918,282.04 C276.899,282.04 282.56,276.38 282.56,269.397 L282.56,13.082 C282.56,6.1 276.899,0.44 269.918,0.44" id="Fill-6" fill="#D7D7D7"></path>
                    <polygon id="Fill-7" fill="#FFFFFE" points="21.44 261.56 262.08 261.56 262.08 52.782 21.44 52.782"></polygon>
                    <polygon id="Fill-8" fill="#FFFFFE" points="21.44 33.172 193.508 33.172 193.508 18.616 21.44 18.616"></polygon>
                    <polygon id="Fill-9" fill="#D7D7D7" points="21.44 261.56 262.08 261.56 262.08 253.865 21.44 253.865"></polygon>
                    <path d="M209.395,18.606 C213.413,18.606 216.671,21.863 216.671,25.881 C216.671,29.899 213.413,33.157 209.395,33.157 C205.377,33.157 202.12,29.899 202.12,25.881 C202.12,21.863 205.377,18.606 209.395,18.606" id="Fill-10" fill="#999999"></path>
                    <path d="M232.128,18.606 C236.146,18.606 239.404,21.863 239.404,25.881 C239.404,29.899 236.146,33.157 232.128,33.157 C228.11,33.157 224.852,29.899 224.852,25.881 C224.852,21.863 228.11,18.606 232.128,18.606" id="Fill-11" fill="#999999"></path>
                    <path d="M254.81,18.606 C258.828,18.606 262.085,21.863 262.085,25.881 C262.085,29.899 258.828,33.157 254.81,33.157 C250.791,33.157 247.534,29.899 247.534,25.881 C247.534,21.863 250.791,18.606 254.81,18.606" id="Fill-12" fill="#999999"></path>
                    <polygon id="Fill-13" fill="#999999" points="34.291 124.738 98.619 124.738 98.619 65.874 34.291 65.874"></polygon>
                    <polygon id="Fill-14" fill="#999999" points="34.291 124.748 98.619 124.748 98.619 116.254 34.291 116.254"></polygon>
                    <polygon id="Fill-15" fill="#D7D7D7" points="121.06 76.421 247.524 76.421 247.524 66.181 121.06 66.181"></polygon>
                    <polygon id="Fill-16" fill="#D7D7D7" points="121.06 102.64 247.524 102.64 247.524 92.4 121.06 92.4"></polygon>
                    <polygon id="Fill-17" fill="#D7D7D7" points="121.06 128.834 247.524 128.834 247.524 118.594 121.06 118.594"></polygon>
                    <polygon id="Fill-18" fill="#D7D7D7" points="34.291 155.033 247.534 155.033 247.534 144.793 34.291 144.793"></polygon>
                    <polygon id="Fill-19" fill="#D7D7D7" points="34.291 181.232 247.534 181.232 247.534 170.992 34.291 170.992"></polygon>
                    <polygon id="Fill-20" fill="#D7D7D7" points="34.291 207.426 247.534 207.426 247.534 197.186 34.291 197.186"></polygon>
                    <polygon id="Fill-21" fill="#D7D7D7" points="34.291 233.605 181.153 233.605 181.153 223.365 34.291 223.365"></polygon>
                    <polyline id="Fill-22" fill="#C6C6C5" points="219.855 122.639 228.902 131.686 144.981 215.607 135.934 206.56 219.855 122.639"></polyline>
                    <polyline id="Fill-23" fill="#D7D7D7" points="228.862 131.671 237.909 140.718 153.988 224.639 144.941 215.592 228.862 131.671"></polyline>
                    <polyline id="Fill-24" fill="#C6C6C5" points="237.92 140.739 246.967 149.786 163.046 233.707 153.999 224.66 237.92 140.739"></polyline>
                    <path d="M127.19,246.377 L141.979,241.148 C141.294,237.938 139.717,234.88 137.224,232.387 C134.73,229.893 131.673,228.317 128.463,227.632 L123.234,242.421 C122.366,244.878 124.732,247.245 127.19,246.377" id="Fill-25" fill="#D7D7D7"></path>
                    <path d="M135.916,206.554 L128.463,227.632 C130.487,228.064 132.45,228.852 134.25,230 L144.962,215.601 L135.916,206.554" id="Fill-26" fill="#999999"></path>
                    <path d="M163.056,233.695 L154.009,224.648 L139.611,235.36 C140.758,237.161 141.547,239.124 141.979,241.148 L163.056,233.695" id="Fill-27" fill="#999999"></path>
                    <path d="M144.962,215.601 L134.25,230 C135.304,230.672 136.303,231.466 137.224,232.387 C138.145,233.308 138.938,234.306 139.611,235.36 L154.009,224.648 L144.962,215.601" id="Fill-28" fill="#999999"></path>
                    <polyline id="Fill-29" fill="#D7D7D7" points="220.113 122.349 247.255 149.491 242.74 154.005 215.598 126.864 220.113 122.349"></polyline>
                    <path d="M245.896,150.855 L218.755,123.714 L236.444,106.026 C240.237,102.233 267.378,129.373 263.584,133.167 L245.896,150.855" id="Fill-30" fill="#999999"></path>
                </g>
            </g>
        </g>
    </g>
</svg>