<?xml version="1.0" encoding="UTF-8"?>
<svg width="60px" height="60px" viewBox="0 0 60 60" version="1.1" xmlns="http://www.w3.org/2000/svg" xmlns:xlink="http://www.w3.org/1999/xlink">
    <!-- Generator: Sketch 50.2 (55047) - http://www.bohemiancoding.com/sketch -->
    <title>linkedin</title>
    <desc>Created with Sketch.</desc>
    <defs></defs>
    <g id="Page-1" stroke="none" stroke-width="1" fill="none" fill-rule="evenodd">
        <g id="home" transform="translate(-316.000000, -9379.000000)" fill="#FFFFFF">
            <g id="footer" transform="translate(-1171.000000, 7768.000000)">
                <g transform="translate(1369.000000, 1151.000000)" id="Group-12">
                    <g transform="translate(2.000000, 460.000000)">
                        <g id="linkedin" transform="translate(116.000000, 0.000000)">
                            <path d="M59.8386667,29.7507692 C59.8386667,46.0925275 46.4426667,59.3413187 29.9193333,59.3413187 C13.396,59.3413187 0,46.0925275 0,29.7507692 C0,13.409011 13.396,0.16021978 29.9193333,0.16021978 C46.4426667,0.16021978 59.8386667,13.409011 59.8386667,29.7507692 Z M47.794,32.1303297 C47.794,25.5989011 44.268,22.5573626 39.5626667,22.5573626 C35.7633333,22.5573626 34.068,24.6257143 33.1173333,26.072967 L33.1173333,26.1421978 L33.07,26.1421978 C33.0833333,26.1191209 33.104,26.096044 33.1173333,26.072967 L33.1173333,23.0571429 L25.9633333,23.0571429 C26.06,25.052967 25.9633333,44.3307692 25.9633333,44.3307692 L33.1173333,44.3307692 L33.1173333,32.4501099 C33.1173333,31.8112088 33.164,31.1802198 33.354,30.7272527 C33.8726667,29.4547253 35.0466667,28.1386813 37.0206667,28.1386813 C39.612,28.1386813 40.6433333,30.090989 40.6433333,32.9498901 L40.6433333,44.3307692 L47.794,44.3307692 L47.794,32.1303297 Z M18.4846667,12.8037363 C16.0366667,12.8037363 14.4373333,14.3927473 14.4373333,16.4789011 C14.4373333,18.5215385 15.9893333,20.1540659 18.3906667,20.1540659 L18.4346667,20.1540659 C20.93,20.1540659 22.482,18.5215385 22.482,16.4789011 C22.4346667,14.3927473 20.93,12.8037363 18.4846667,12.8037363 Z M14.862,44.3307692 L22.0106667,44.3307692 L22.0106667,23.0571429 L14.862,23.0571429 L14.862,44.3307692 Z" id="Combined-Shape"></path>
                        </g>
                    </g>
                </g>
            </g>
        </g>
    </g>
</svg>