<?xml version="1.0" encoding="UTF-8"?>
<svg width="82px" height="83px" viewBox="0 0 82 83" version="1.1" xmlns="http://www.w3.org/2000/svg" xmlns:xlink="http://www.w3.org/1999/xlink">
    <!-- Generator: Sketch 50.2 (55047) - http://www.bohemiancoding.com/sketch -->
    <title>right-quote-sign</title>
    <desc>Created with Sketch.</desc>
    <defs></defs>
    <g id="Page-1" stroke="none" stroke-width="1" fill="none" fill-rule="evenodd">
        <g id="home" transform="translate(-610.000000, -2014.000000)" fill="#D7D7D7">
            <g id="entroy-&amp;-micro" transform="translate(-296.000000, 1857.000000)">
                <g id="microsoft" transform="translate(906.000000, 29.005270)">
                    <g id="right-quote-sign" transform="translate(41.000000, 169.306261) scale(-1, -1) translate(-41.000000, -169.306261) translate(0.000000, 127.806261)">
                        <path d="M77.8046752,0 L52.297205,0 C49.9815954,0 48.1018801,2.14296356 48.1018801,4.782867 L48.1018801,33.8625788 C48.1018801,36.5029605 49.9815954,38.6454458 52.297205,38.6454458 L64.5058101,38.6454458 C64.3460731,46.25977 62.7941175,52.3531426 59.8573901,56.9352488 C57.541361,60.5508571 54.0343841,63.5452905 49.3436963,65.9077877 C47.1874042,66.9885961 46.256147,69.8965792 47.2628152,72.3263952 L50.2835539,79.596353 C51.2569742,81.9303921 53.664776,82.9541648 55.7456571,81.9303921 C61.3003721,79.1947118 65.9910599,75.7317965 69.8167767,71.5229931 C74.4820828,66.3860744 77.6789203,60.58912 79.407499,54.122923 C81.1359728,47.6562476 82,38.83688 82,27.6448517 L82,4.782867 C82,2.14296356 80.1207042,0 77.8046752,0 Z" id="Fill-1"></path>
                        <path d="M8.89697455,81.9263233 C14.384401,79.1994682 19.0496575,75.7363945 22.9008198,71.5361454 C27.6081339,66.3982821 30.8214039,60.6195163 32.5499642,54.1997285 C34.2784197,47.7799406 35.1428571,38.9300096 35.1428571,27.6499353 L35.1428571,4.78374652 C35.1428571,2.14335763 33.2631619,0 30.947577,0 L5.4399588,0 C3.1243739,0 1.24467862,2.14335763 1.24467862,4.78374652 L1.24467862,33.8688058 C1.24467862,36.509673 3.1243739,38.6525523 5.4399588,38.6525523 L17.6485388,38.6525523 C17.4891181,46.2682767 15.9367596,52.3627698 13.0000635,56.9457186 C10.684059,60.5619917 7.17711944,63.5569758 2.48648155,65.9199074 C0.330212421,67.0009146 -0.600930016,69.9094324 0.405622582,72.3396953 L3.4181484,79.591855 C4.39113876,81.9263233 6.81611558,82.9596125 8.89697455,81.9263233 Z" id="Fill-3"></path>
                    </g>
                </g>
            </g>
        </g>
    </g>
</svg>