<?xml version="1.0" encoding="UTF-8"?>
<svg width="512px" height="440px" viewBox="0 0 512 440" version="1.1" xmlns="http://www.w3.org/2000/svg" xmlns:xlink="http://www.w3.org/1999/xlink">
    <!-- Generator: Sketch 50.2 (55047) - http://www.bohemiancoding.com/sketch -->
    <title>RUBY ON RAILS</title>
    <desc>Created with Sketch.</desc>
    <defs>
        <polygon id="path-1" points="0.06 0.005 512 0.005 512 440 0.06 440"></polygon>
    </defs>
    <g id="Page-1" stroke="none" stroke-width="1" fill="none" fill-rule="evenodd">
        <g id="home" transform="translate(-705.000000, -2671.000000)">
            <g id="RUBY-ON-RAILS" transform="translate(705.000000, 2671.000000)">
                <mask id="mask-2" fill="white">
                    <use xlink:href="#path-1"></use>
                </mask>
                <g id="Clip-2"></g>
                <path d="M511.956,129.131 C511.951,129.075 511.951,129.018 511.946,128.962 C511.914,128.658 511.867,128.355 511.808,128.055 C511.782,127.924 511.747,127.798 511.716,127.669 C511.675,127.497 511.634,127.325 511.584,127.155 C511.542,127.014 511.493,126.876 511.445,126.737 C511.392,126.583 511.338,126.429 511.277,126.277 C511.222,126.14 511.162,126.005 511.101,125.871 C511.033,125.722 510.963,125.575 510.888,125.428 C510.821,125.298 510.752,125.171 510.68,125.045 C510.598,124.901 510.511,124.759 510.421,124.619 C510.343,124.497 510.264,124.377 510.181,124.259 C510.085,124.123 509.984,123.99 509.881,123.858 C509.791,123.743 509.702,123.629 509.608,123.519 C509.57,123.474 509.537,123.426 509.497,123.382 L403.497,3.382 C403.472,3.354 403.444,3.33 403.419,3.303 C403.254,3.12 403.08,2.947 402.901,2.776 C402.834,2.712 402.77,2.644 402.701,2.582 C402.49,2.391 402.268,2.212 402.039,2.039 C401.995,2.006 401.954,1.968 401.909,1.936 C401.636,1.737 401.353,1.549 401.057,1.376 C401.053,1.374 401.05,1.371 401.046,1.369 C400.46,1.028 399.832,0.74 399.164,0.517 C399.159,0.515 399.153,0.514 399.148,0.513 C399.048,0.48 398.944,0.458 398.843,0.428 C398.609,0.358 398.374,0.288 398.139,0.236 C398.058,0.218 397.974,0.209 397.892,0.194 C397.63,0.143 397.369,0.097 397.107,0.067 C397.026,0.058 396.944,0.057 396.863,0.05 C396.597,0.027 396.332,0.009 396.068,0.008 C396.046,0.008 396.024,0.005 396.002,0.005 L116,0.005 C115.977,0.005 115.954,0.008 115.93,0.009 C115.673,0.011 115.414,0.029 115.155,0.051 C115.067,0.059 114.979,0.06 114.891,0.069 C114.637,0.098 114.384,0.143 114.13,0.192 C114.04,0.209 113.949,0.219 113.86,0.238 C113.63,0.289 113.4,0.358 113.171,0.426 C113.066,0.457 112.957,0.48 112.853,0.514 C112.848,0.516 112.842,0.517 112.837,0.518 C112.168,0.741 111.54,1.029 110.955,1.37 C110.951,1.372 110.948,1.375 110.944,1.377 C110.648,1.55 110.365,1.737 110.092,1.937 C110.047,1.97 110.006,2.007 109.962,2.041 C109.734,2.214 109.512,2.393 109.301,2.583 C109.232,2.646 109.167,2.714 109.1,2.778 C108.922,2.948 108.747,3.122 108.583,3.304 C108.558,3.332 108.53,3.356 108.505,3.383 L2.505,123.383 C2.466,123.427 2.433,123.475 2.394,123.52 C2.3,123.63 2.21,123.744 2.121,123.859 C2.018,123.991 1.917,124.124 1.821,124.26 C1.738,124.378 1.659,124.498 1.581,124.62 C1.491,124.761 1.404,124.902 1.322,125.046 C1.25,125.172 1.18,125.299 1.114,125.429 C1.039,125.575 0.968,125.723 0.901,125.872 C0.84,126.006 0.78,126.14 0.725,126.278 C0.664,126.43 0.61,126.584 0.557,126.738 C0.509,126.877 0.46,127.015 0.418,127.156 C0.368,127.326 0.327,127.498 0.286,127.67 C0.255,127.799 0.22,127.926 0.194,128.056 C0.134,128.357 0.087,128.659 0.056,128.963 C0.05,129.019 0.05,129.076 0.046,129.132 C0.023,129.394 0.008,129.657 0.006,129.92 C0.004,129.947 0,129.974 0,130.002 C0,130.084 0.01,130.164 0.012,130.245 C0.017,130.453 0.025,130.66 0.043,130.867 C0.054,130.998 0.07,131.127 0.086,131.256 C0.109,131.435 0.135,131.613 0.168,131.79 C0.193,131.93 0.22,132.069 0.251,132.206 C0.288,132.369 0.331,132.531 0.376,132.693 C0.415,132.834 0.454,132.975 0.499,133.113 C0.55,133.269 0.61,133.423 0.669,133.578 C0.721,133.713 0.77,133.85 0.827,133.982 C0.895,134.139 0.974,134.292 1.051,134.446 C1.112,134.569 1.168,134.695 1.234,134.815 C1.326,134.982 1.431,135.144 1.533,135.307 C1.596,135.407 1.653,135.511 1.719,135.609 C1.889,135.859 2.071,136.104 2.266,136.342 L2.276,136.354 C2.28,136.359 2.284,136.364 2.288,136.369 L248.266,436.342 C248.287,436.367 248.311,436.389 248.332,436.414 C248.546,436.669 248.768,436.916 249.005,437.147 C249.032,437.174 249.062,437.198 249.09,437.224 C249.301,437.426 249.522,437.617 249.749,437.799 C249.82,437.856 249.892,437.912 249.964,437.967 C250.2,438.146 250.442,438.316 250.693,438.473 C250.72,438.49 250.746,438.509 250.773,438.526 C251.05,438.695 251.337,438.848 251.629,438.99 C251.705,439.027 251.782,439.061 251.859,439.096 C252.103,439.207 252.352,439.309 252.605,439.4 C252.668,439.423 252.729,439.448 252.792,439.469 C253.102,439.574 253.418,439.664 253.739,439.739 C253.802,439.754 253.866,439.764 253.93,439.777 C254.194,439.833 254.461,439.878 254.732,439.912 C254.821,439.923 254.909,439.935 254.998,439.944 C255.328,439.977 255.661,440 255.998,440 C256.335,440 256.668,439.977 256.998,439.944 C257.087,439.935 257.175,439.923 257.264,439.912 C257.534,439.878 257.801,439.833 258.065,439.777 C258.129,439.764 258.193,439.753 258.256,439.739 C258.577,439.665 258.893,439.574 259.203,439.469 C259.266,439.448 259.328,439.422 259.39,439.4 C259.643,439.308 259.892,439.207 260.136,439.096 C260.213,439.061 260.29,439.027 260.366,438.99 C260.658,438.848 260.945,438.695 261.222,438.526 C261.249,438.509 261.275,438.49 261.302,438.473 C261.553,438.316 261.794,438.146 262.03,437.968 C262.103,437.913 262.175,437.856 262.246,437.799 C262.473,437.617 262.694,437.426 262.905,437.225 C262.933,437.198 262.962,437.174 262.99,437.147 C263.227,436.915 263.45,436.669 263.663,436.414 C263.684,436.389 263.708,436.368 263.729,436.342 L509.707,136.369 C509.711,136.364 509.715,136.359 509.719,136.354 L509.729,136.342 C509.924,136.104 510.107,135.859 510.276,135.609 C510.342,135.511 510.399,135.407 510.462,135.307 C510.564,135.144 510.669,134.982 510.761,134.815 C510.827,134.695 510.883,134.569 510.944,134.446 C511.021,134.292 511.099,134.139 511.168,133.982 C511.226,133.85 511.274,133.713 511.326,133.578 C511.385,133.424 511.445,133.27 511.496,133.113 C511.541,132.975 511.58,132.834 511.619,132.693 C511.664,132.531 511.707,132.37 511.744,132.206 C511.775,132.068 511.802,131.93 511.827,131.79 C511.859,131.612 511.886,131.435 511.909,131.256 C511.925,131.127 511.941,130.997 511.952,130.867 C511.97,130.66 511.978,130.452 511.983,130.245 C511.99,130.164 512,130.084 512,130.002 C512,129.974 511.996,129.947 511.996,129.919 C511.994,129.656 511.979,129.393 511.956,129.131 Z" id="Fill-3" fill="#D7D7D7" mask="url(#mask-2)"></path>
                <polygon id="Path" fill="#F4F4F4" points="363.208 140.002 480.868 140.002 282.618 381.77"></polygon>
                <polygon id="Path" fill="#F4F4F4" points="148.792 140.002 229.381 381.77 31.132 140.002"></polygon>
                <path d="M216,120.002 L177.351,120.002 L256,25.623 L334.649,120.002 L295.06,120.002 C289.537,120.002 285.06,124.479 285.06,130.002 C285.06,135.525 289.537,140.002 295.06,140.002 L342.126,140.002 L256,398.379 L169.874,140.002 L216,140.002 C221.523,140.002 226,135.525 226,130.002 C226,124.479 221.523,120.002 216,120.002 Z" id="Path" fill="#F4F4F4"></path>
                <path d="M256,140.002 C261.52,140.002 266,135.522 266,130.002 C266,124.482 261.52,120.002 256,120.002 C250.48,120.002 246,124.482 246,130.002 C246,135.522 250.48,140.002 256,140.002" id="Path" fill="#D7D7D7"></path>
                <polygon id="Path" fill="#F4F4F4" points="112.003 29.632 142.126 120.002 32.176 120.002"></polygon>
                <polygon id="Path" fill="#F4F4F4" points="277.35 20.002 382.125 20.002 352.189 109.81"></polygon>
                <polygon id="Path" fill="#F4F4F4" points="159.81 109.81 129.874 20.002 234.65 20.002"></polygon>
                <polygon id="Path" fill="#F4F4F4" points="369.874 120.002 399.997 29.632 479.824 120.002"></polygon>
            </g>
        </g>
    </g>
</svg>