<?xml version="1.0" encoding="UTF-8"?>
<svg width="60px" height="59px" viewBox="0 0 60 59" version="1.1" xmlns="http://www.w3.org/2000/svg" xmlns:xlink="http://www.w3.org/1999/xlink">
    <!-- Generator: Sketch 50.2 (55047) - http://www.bohemiancoding.com/sketch -->
    <title>twitter-logo-button</title>
    <desc>Created with Sketch.</desc>
    <defs>
        <polygon id="path-1" points="0.09 0.406829268 59.5845 0.406829268 59.5845 58.5380488 0.09 58.5380488"></polygon>
    </defs>
    <g id="Page-1" stroke="none" stroke-width="1" fill="none" fill-rule="evenodd">
        <g id="home" transform="translate(-200.000000, -9380.000000)">
            <g id="footer" transform="translate(-1171.000000, 7768.000000)">
                <g transform="translate(1369.000000, 1151.000000)" id="Group-12">
                    <g transform="translate(2.000000, 460.000000)">
                        <g id="twitter-logo-button" transform="translate(0.000000, 1.000000)">
                            <mask id="mask-2" fill="white">
                                <use xlink:href="#path-1"></use>
                            </mask>
                            <g id="Clip-2"></g>
                            <path d="M29.7885,0.406829268 C13.365,0.406829268 0,13.4473171 0,29.4702439 C0,45.4990244 13.365,58.5380488 29.7885,58.5380488 C46.218,58.5380488 59.5845,45.4990244 59.5845,29.4702439 C59.5845,13.4473171 46.218,0.406829268 29.7885,0.406829268 Z M43.0845,22.8219512 C43.095,23.1073171 43.101,23.3985366 43.101,23.6912195 C43.101,32.5287805 36.2055,42.72 23.5905,42.72 C19.7175,42.72 16.113,41.6180488 13.0785,39.7141463 C13.617,39.7770732 14.1615,39.8107317 14.7135,39.8107317 C17.9295,39.8107317 20.883,38.742439 23.232,36.9468293 C20.232,36.8897561 17.7015,34.9580488 16.8285,32.2990244 C17.244,32.3795122 17.6715,32.4190244 18.117,32.4190244 C18.738,32.4190244 19.347,32.34 19.9215,32.184878 C16.7865,31.5731707 14.4195,28.8702439 14.4195,25.6287805 C14.4195,25.5995122 14.4195,25.5717073 14.4255,25.542439 C15.345,26.0458537 16.407,26.3429268 17.532,26.3765854 C15.6915,25.182439 14.478,23.1307317 14.478,20.8097561 C14.478,19.5863415 14.8185,18.437561 15.405,17.4482927 C18.7845,21.4960976 23.8425,24.1595122 29.5365,24.4390244 C29.4195,23.9473171 29.361,23.4395122 29.361,22.9126829 C29.361,19.2204878 32.4315,16.224878 36.2175,16.224878 C38.1915,16.224878 39.972,17.0370732 41.22,18.3336585 C42.7845,18.0365854 44.256,17.4819512 45.5805,16.7107317 C45.0645,18.2765854 43.98,19.5863415 42.5625,20.4146341 C43.9515,20.255122 45.276,19.895122 46.5,19.3639024 C45.5865,20.7014634 44.4195,21.8780488 43.0845,22.8219512 Z" id="Fill-1" fill="#FFFFFF" mask="url(#mask-2)"></path>
                        </g>
                    </g>
                </g>
            </g>
        </g>
    </g>
</svg>